<?xml version="1.0" encoding="UTF-8"?>
<svg width="512" height="512" viewBox="0 0 512 512" xmlns="http://www.w3.org/2000/svg">
  <circle cx="256" cy="256" r="256" fill="white"/>
  <path d="M256 48C141.1 48 48 141.1 48 256s93.1 208 208 208 208-93.1 208-208S370.9 48 256 48zm0 384c-97.2 0-176-78.8-176-176S158.8 80 256 80s176 78.8 176 176-78.8 176-176 176z" fill="black"/>
  <path d="M256 112c-79.5 0-144 64.5-144 144s64.5 144 144 144 144-64.5 144-144-64.5-144-144-144zm62 233.5c-17.2-8.5-60.5-30-62-30.8-1.5.8-44.8 22.3-62 30.8-7.8 3.9-15.8 7.5-24 10.5 22.2 16.7 49.8 26 80 26s57.8-9.3 80-26c-8.2-3-16.2-6.6-24-10.5zM178 231c0-3.3 2.7-6 6-6h16c3.3 0 6 2.7 6 6v10h-28v-10zm128 0c0-3.3 2.7-6 6-6h16c3.3 0 6 2.7 6 6v10h-28v-10zm-48.5-37c-1.4-1.4-3.6-1.4-5 0L200 246.5c-1.4 1.4-1.4 3.6 0 5l52.5 52.5c1.4 1.4 3.6 1.4 5 0l52.5-52.5c1.4-1.4 1.4-3.6 0-5L257.5 194z" fill="black"/>
  <path d="M256 144c-61.9 0-112 50.1-112 112 0 9.5 1.2 18.7 3.4 27.5 6.5-3.2 11.6-5.7 13.6-6.7 16.7-8.3 27-13.5 33.1-16.5 7.7-3.8 18.5-9.1 27.9-13.8 21.2-10.6 37.9-18.9 42-20.9 4.1 2 20.8 10.3 42 20.9 9.4 4.7 20.2 10 27.9 13.8 6.1 3 16.4 8.2 33.1 16.5 2 1 7.1 3.5 13.6 6.7 2.2-8.8 3.4-18 3.4-27.5 0-61.9-50.1-112-112-112zm40.8 117.8c-18.4-9.2-30.9-15.4-35.6-17.8-4.8-2.4-5.5-2.7-5.5-2.7s-.8.3-5.5 2.7c-4.7 2.4-17.2 8.6-35.6 17.8-9.2 4.6-19.8 9.9-29.6 14.8 7.7 31.4 32 56.6 65.5 61.8L257 288l10.5 42.4c33.4-5.2 57.8-30.4 65.5-61.8-9.8-4.9-20.4-10.2-29.6-14.8zM194 306c-3.6 3.6-9.4 3.6-13 0s-3.6-9.4 0-13 9.4-3.6 13 0 3.6 9.4 0 13zm137 0c-3.6 3.6-9.4 3.6-13 0s-3.6-9.4 0-13 9.4-3.6 13 0 3.6 9.4 0 13z" fill="white"/>
  <path d="M256 112c-79.5 0-144 64.5-144 144s64.5 144 144 144 144-64.5 144-144-64.5-144-144-144zm0 288c-79.5 0-144-64.5-144-144s64.5-144 144-144 144 64.5 144 144-64.5 144-144 144z" fill="white"/>
  <path d="M397 256c0-77.9-63.1-141-141-141s-141 63.1-141 141c0 38.5 15.5 73.3 40.6 98.7 2.2-1.1 4.3-2.2 6.4-3.2 7.8-3.9 15.8-7.5 24-10.5 17.2-8.5 60.5-30 62-30.8 1.5.8 44.8 22.3 62 30.8 8.2 3 16.2 6.6 24 10.5 2.1 1 4.2 2.1 6.4 3.2 25.1-25.4 40.6-60.2 40.6-98.7z" fill="black"/>
  <path d="M256 208c-26.5 0-48 21.5-48 48s21.5 48 48 48 48-21.5 48-48-21.5-48-48-48zm0 80c-17.7 0-32-14.3-32-32s14.3-32 32-32 32 14.3 32 32-14.3 32-32 32z" fill="white"/>
  <!-- Mountain and Wave logo -->
  <path d="M256 80C158.8 80 80 158.8 80 256s78.8 176 176 176 176-78.8 176-176S353.2 80 256 80zm0 320c-79.5 0-144-64.5-144-144s64.5-144 144-144 144 64.5 144 144-64.5 144-144 144z" fill="black"/>
  <path d="M372.5 256c0-64.4-52.1-116.5-116.5-116.5S139.5 191.6 139.5 256c0 42.3 22.6 79.4 56.3 99.9 6.3-3.2 12.6-6.3 18.9-9.5 17.2-8.5 60.5-30 62-30.8 1.5.8 44.8 22.3 62 30.8 6.3 3.1 12.6 6.3 18.9 9.5 33.7-20.5 56.3-57.6 56.3-99.9z" fill="white"/>
  <!-- Simplified Mountain and Wave logo -->
  <circle cx="256" cy="256" r="200" fill="none" stroke="black" stroke-width="24"/>
  <path d="M147 320 A150 80 0 0 1 365 320" fill="none" stroke="black" stroke-width="16"/>
  <path d="M147 350 A150 80 0 0 1 365 350" fill="none" stroke="black" stroke-width="12"/>
  <path d="M147 375 A150 80 0 0 1 365 375" fill="none" stroke="black" stroke-width="8"/>
  <path d="M170 200 L256 140 L342 200 L322 240 L256 180 L190 240 Z" fill="black"/>
</svg> 